<svg width="16" height="16" viewBox="0 0 16 16" fill="none" xmlns="http://www.w3.org/2000/svg">
<path d="M12.8611 2.19526C13.1215 1.93491 13.5436 1.93491 13.804 2.19526C14.0643 2.45561 14.0643 2.87772 13.804 3.13807L10.0115 6.93051L10.7593 7.67824C11.4387 8.35768 11.5389 9.42429 10.998 10.2184L8.68475 13.4256C8.20434 14.1308 7.1943 14.2095 6.61043 13.5872L3.52575 10.3056L2.35819 9.05317C1.78228 8.43541 1.91853 7.44466 2.63981 7.00528L5.82662 4.90646C6.61466 4.42642 7.62883 4.54781 8.28131 5.20029L9.06872 5.9877L12.8611 2.19526ZM8.59728 7.40195L8.59152 7.39612L7.3385 6.1431C7.12101 5.92561 6.78295 5.88514 6.52027 6.04516L3.33346 8.14398L4.10235 8.96876L5.62409 7.88365C5.92387 7.66988 6.34018 7.73961 6.55394 8.03939C6.76771 8.33917 6.69798 8.75548 6.3982 8.96925L5.02229 9.95038L5.94477 10.9308L6.96233 9.52902C7.17862 9.23106 7.59551 9.16486 7.89347 9.38115C8.19143 9.59745 8.25763 10.0143 8.04133 10.3123L6.87436 11.9199L7.5828 12.6749L9.89602 9.46777C10.0763 9.20306 10.0429 8.84753 9.81645 8.62104L8.60311 7.40771L8.59728 7.40195Z" fill="white"/>
<path d="M4 2C2.89543 2 2 2.89543 2 4V4.66667C2 5.03486 2.29848 5.33333 2.66667 5.33333C3.03486 5.33333 3.33333 5.03486 3.33333 4.66667V4C3.33333 3.63181 3.63181 3.33333 4 3.33333H4.66667C5.03486 3.33333 5.33333 3.03486 5.33333 2.66667C5.33333 2.29848 5.03486 2 4.66667 2H4Z" fill="white"/>
<path d="M7.33333 2C6.96514 2 6.66667 2.29848 6.66667 2.66667C6.66667 3.03486 6.96514 3.33333 7.33333 3.33333H8.66667C9.03486 3.33333 9.33333 3.03486 9.33333 2.66667C9.33333 2.29848 9.03486 2 8.66667 2H7.33333Z" fill="white"/>
<path d="M14 7.33333C14 6.96514 13.7015 6.66667 13.3333 6.66667C12.9651 6.66667 12.6667 6.96514 12.6667 7.33333V8.66667C12.6667 9.03486 12.9651 9.33333 13.3333 9.33333C13.7015 9.33333 14 9.03486 14 8.66667V7.33333Z" fill="white"/>
<path d="M3.33333 11.3333C3.33333 10.9651 3.03486 10.6667 2.66667 10.6667C2.29848 10.6667 2 10.9651 2 11.3333V12C2 13.1046 2.89543 14 4 14H4.66667C5.03486 14 5.33333 13.7015 5.33333 13.3333C5.33333 12.9651 5.03486 12.6667 4.66667 12.6667H4C3.63181 12.6667 3.33333 12.3682 3.33333 12V11.3333Z" fill="white"/>
<path d="M14 11.3333C14 10.9651 13.7015 10.6667 13.3333 10.6667C12.9651 10.6667 12.6667 10.9651 12.6667 11.3333V12C12.6667 12.3682 12.3682 12.6667 12 12.6667H11.3333C10.9651 12.6667 10.6667 12.9651 10.6667 13.3333C10.6667 13.7015 10.9651 14 11.3333 14H12C13.1046 14 14 13.1046 14 12V11.3333Z" fill="white"/>
</svg>
